<?xml version="1.0" encoding="UTF-8" standalone="no"?><svg xmlns="http://www.w3.org/2000/svg" xmlns:xlink="http://www.w3.org/1999/xlink" height="878" version="1.1" width="1576.3251953125"><defs/><g><g transform="translate(-22,10) scale(1,1)"><rect fill="#C0C0C0" height="250" opacity="0.2" stroke="none" width="604.27685546875" x="879" y="615"/></g><g transform="translate(-22,10) scale(1,1)"><rect fill="#ffffff" height="250" stroke="none" width="604.27685546875" x="872" y="608"/></g><g transform="translate(-22,10) scale(1,1)"><path d="M 872 608 L 1476.27685546875 608 L 1476.27685546875 858 L 872 858 L 872 608 Z Z" fill="none" stroke="#000000" stroke-miterlimit="10"/></g><g transform="translate(-22,10) scale(1,1)"><path d="M 872 648 L 1476.27685546875 648" fill="none" stroke="#000000" stroke-miterlimit="10"/></g><g transform="translate(-22,10) scale(1,1)"><path d="M 872 701 L 1476.27685546875 701" fill="none" stroke="#000000" stroke-miterlimit="10"/></g><g transform="translate(-22,10) scale(1,1)"><g><path fill="none" stroke="none"/><text fill="#000000" font-family="Arial" font-size="13px" font-style="normal" font-weight="bold" stroke="none" text-decoration="none" x="1125.02978515625" y="625.5">CompteCourant</text></g></g><g transform="translate(-22,10) scale(1,1)"><g><path fill="none" stroke="none"/><text fill="#000000" font-family="Arial" font-size="13px" font-style="normal" font-weight="normal" stroke="none" text-decoration="none" x="1134.0498046875" y="640.5">(from models)</text></g></g><g transform="translate(-22,10) scale(1,1)"><g><path fill="none" stroke="none"/><text fill="#000000" font-family="Arial" font-size="13px" font-style="normal" font-weight="normal" stroke="none" text-decoration="none" x="877" y="663.5">-INTEREST_POS: double = 0.01</text><path d="M 877 665.5 L 1066.67431640625 665.5" fill="none" stroke="#000000" stroke-miterlimit="10"/></g></g><g transform="translate(-22,10) scale(1,1)"><g><path fill="none" stroke="none"/><text fill="#000000" font-family="Arial" font-size="13px" font-style="normal" font-weight="normal" stroke="none" text-decoration="none" x="877" y="678.5">-INTEREST_NEG: double = 0.075</text><path d="M 877 680.5 L 1074.62158203125 680.5" fill="none" stroke="#000000" stroke-miterlimit="10"/></g></g><g transform="translate(-22,10) scale(1,1)"><g><path fill="none" stroke="none"/><text fill="#000000" font-family="Arial" font-size="13px" font-style="normal" font-weight="normal" stroke="none" text-decoration="none" x="877" y="693.5">-ligneDeCredit: double</text></g></g><g transform="translate(-22,10) scale(1,1)"><g><path fill="none" stroke="none"/><text fill="#000000" font-family="Arial" font-size="13px" font-style="normal" font-weight="normal" stroke="none" text-decoration="none" x="877" y="716.5">«constructor»+CompteCourant(numero: String, titulaire: Titulaire, solde: Double, ligneDeCredit: Double)</text></g></g><g transform="translate(-22,10) scale(1,1)"><g><path fill="none" stroke="none"/><text fill="#000000" font-family="Arial" font-size="13px" font-style="normal" font-weight="normal" stroke="none" text-decoration="none" x="877" y="731.5">«constructor»+CompteCourant(numero: String, titulaire: Titulaire, ligneDeCredit: Double)</text></g></g><g transform="translate(-22,10) scale(1,1)"><g><path fill="none" stroke="none"/><text fill="#000000" font-family="Arial" font-size="13px" font-style="normal" font-weight="normal" stroke="none" text-decoration="none" x="877" y="746.5">«constructor»+CompteCourant(numero: String, titulaire: Titulaire)</text></g></g><g transform="translate(-22,10) scale(1,1)"><g><path fill="none" stroke="none"/><text fill="#000000" font-family="Arial" font-size="13px" font-style="normal" font-weight="normal" stroke="none" text-decoration="none" x="877" y="761.5">«constructor»+CompteCourant(compte: CompteCourant)</text></g></g><g transform="translate(-22,10) scale(1,1)"><g><path fill="none" stroke="none"/><text fill="#000000" font-family="Arial" font-size="13px" font-style="normal" font-weight="normal" stroke="none" text-decoration="none" x="877" y="776.5">«constructor»+CompteCourant(compte: Compte)</text></g></g><g transform="translate(-22,10) scale(1,1)"><g><path fill="none" stroke="none"/><text fill="#000000" font-family="Arial" font-size="13px" font-style="normal" font-weight="normal" stroke="none" text-decoration="none" x="877" y="791.5">+setLigneDeCredit(ligneDeCredit: double): CompteCourant</text></g></g><g transform="translate(-22,10) scale(1,1)"><g><path fill="none" stroke="none"/><text fill="#000000" font-family="Arial" font-size="13px" font-style="normal" font-weight="normal" stroke="none" text-decoration="none" x="877" y="806.5">+getLigneDeCredit(): double</text></g></g><g transform="translate(-22,10) scale(1,1)"><g><path fill="none" stroke="none"/><text fill="#000000" font-family="Arial" font-size="13px" font-style="normal" font-weight="normal" stroke="none" text-decoration="none" x="877" y="821.5">+retrait(montant: double): void</text></g></g><g transform="translate(-22,10) scale(1,1)"><g><path fill="none" stroke="none"/><text fill="#000000" font-family="Arial" font-size="13px" font-style="normal" font-weight="normal" stroke="none" text-decoration="none" x="877" y="836.5">+toString(): String</text></g></g><g transform="translate(-22,10) scale(1,1)"><g><path fill="none" stroke="none"/><text fill="#000000" font-family="Arial" font-size="13px" font-style="normal" font-weight="normal" stroke="none" text-decoration="none" x="877" y="851.5">#calculInteret(): double</text></g></g><g transform="translate(-22,10) scale(1,1)"><rect fill="#C0C0C0" height="205" opacity="0.2" stroke="none" width="472.7724609375" x="279" y="631"/></g><g transform="translate(-22,10) scale(1,1)"><rect fill="#ffffff" height="205" stroke="none" width="472.7724609375" x="272" y="624"/></g><g transform="translate(-22,10) scale(1,1)"><path d="M 272 624 L 744.7724609375 624 L 744.7724609375 829 L 272 829 L 272 624 Z Z" fill="none" stroke="#000000" stroke-miterlimit="10"/></g><g transform="translate(-22,10) scale(1,1)"><path d="M 272 664 L 744.7724609375 664" fill="none" stroke="#000000" stroke-miterlimit="10"/></g><g transform="translate(-22,10) scale(1,1)"><path d="M 272 702 L 744.7724609375 702" fill="none" stroke="#000000" stroke-miterlimit="10"/></g><g transform="translate(-22,10) scale(1,1)"><g><path fill="none" stroke="none"/><text fill="#000000" font-family="Arial" font-size="13px" font-style="normal" font-weight="bold" stroke="none" text-decoration="none" x="458.185791015625" y="641.5">CompteEpargne</text></g></g><g transform="translate(-22,10) scale(1,1)"><g><path fill="none" stroke="none"/><text fill="#000000" font-family="Arial" font-size="13px" font-style="normal" font-weight="normal" stroke="none" text-decoration="none" x="468.297607421875" y="656.5">(from models)</text></g></g><g transform="translate(-22,10) scale(1,1)"><g><path fill="none" stroke="none"/><text fill="#000000" font-family="Arial" font-size="13px" font-style="normal" font-weight="normal" stroke="none" text-decoration="none" x="277" y="679.5">-INTEREST: double = 0.1</text><path d="M 277 681.5 L 423.31982421875 681.5" fill="none" stroke="#000000" stroke-miterlimit="10"/></g></g><g transform="translate(-22,10) scale(1,1)"><g><path fill="none" stroke="none"/><text fill="#000000" font-family="Arial" font-size="13px" font-style="normal" font-weight="normal" stroke="none" text-decoration="none" x="277" y="694.5">-dateDernierRetrait: LocalDate</text></g></g><g transform="translate(-22,10) scale(1,1)"><g><path fill="none" stroke="none"/><text fill="#000000" font-family="Arial" font-size="13px" font-style="normal" font-weight="normal" stroke="none" text-decoration="none" x="277" y="717.5">«constructor»+CompteEpargne(numero: String, titulaire: Titulaire)</text></g></g><g transform="translate(-22,10) scale(1,1)"><g><path fill="none" stroke="none"/><text fill="#000000" font-family="Arial" font-size="13px" font-style="normal" font-weight="normal" stroke="none" text-decoration="none" x="277" y="732.5">«constructor»+CompteEpargne(numero: String, titulaire: Titulaire, solde: Double)</text></g></g><g transform="translate(-22,10) scale(1,1)"><g><path fill="none" stroke="none"/><text fill="#000000" font-family="Arial" font-size="13px" font-style="normal" font-weight="normal" stroke="none" text-decoration="none" x="277" y="747.5">«constructor»+CompteEpargne(compte: CompteEpargne)</text></g></g><g transform="translate(-22,10) scale(1,1)"><g><path fill="none" stroke="none"/><text fill="#000000" font-family="Arial" font-size="13px" font-style="normal" font-weight="normal" stroke="none" text-decoration="none" x="277" y="762.5">«constructor»+CompteEpargne(compte: Compte)</text></g></g><g transform="translate(-22,10) scale(1,1)"><g><path fill="none" stroke="none"/><text fill="#000000" font-family="Arial" font-size="13px" font-style="normal" font-weight="normal" stroke="none" text-decoration="none" x="277" y="777.5">+getDateDernierRetrait(): LocalDate</text></g></g><g transform="translate(-22,10) scale(1,1)"><g><path fill="none" stroke="none"/><text fill="#000000" font-family="Arial" font-size="13px" font-style="normal" font-weight="normal" stroke="none" text-decoration="none" x="277" y="792.5">+retrait(montant: double): void</text></g></g><g transform="translate(-22,10) scale(1,1)"><g><path fill="none" stroke="none"/><text fill="#000000" font-family="Arial" font-size="13px" font-style="normal" font-weight="normal" stroke="none" text-decoration="none" x="277" y="807.5">+toString(): String</text></g></g><g transform="translate(-22,10) scale(1,1)"><g><path fill="none" stroke="none"/><text fill="#000000" font-family="Arial" font-size="13px" font-style="normal" font-weight="normal" stroke="none" text-decoration="none" x="277" y="822.5">#calculInteret(): double</text></g></g><g transform="translate(-22,10) scale(1,1)"><rect fill="#C0C0C0" height="355" opacity="0.2" stroke="none" width="421.46435546875" x="631" y="23"/></g><g transform="translate(-22,10) scale(1,1)"><rect fill="#ffffff" height="355" stroke="none" width="421.46435546875" x="624" y="16"/></g><g transform="translate(-22,10) scale(1,1)"><path d="M 624 16 L 1045.46435546875 16 L 1045.46435546875 371 L 624 371 L 624 16 Z Z" fill="none" stroke="#000000" stroke-miterlimit="10"/></g><g transform="translate(-22,10) scale(1,1)"><path d="M 624 56 L 1045.46435546875 56" fill="none" stroke="#000000" stroke-miterlimit="10"/></g><g transform="translate(-22,10) scale(1,1)"><path d="M 624 94 L 1045.46435546875 94" fill="none" stroke="#000000" stroke-miterlimit="10"/></g><g transform="translate(-22,10) scale(1,1)"><g><path fill="none" stroke="none"/><text fill="#000000" font-family="Arial" font-size="13px" font-style="italic" font-weight="bold" stroke="none" text-decoration="none" x="810.5380859375" y="33.5">Compte</text></g></g><g transform="translate(-22,10) scale(1,1)"><g><path fill="none" stroke="none"/><text fill="#000000" font-family="Arial" font-size="13px" font-style="normal" font-weight="normal" stroke="none" text-decoration="none" x="794.6435546875" y="48.5">(from models)</text></g></g><g transform="translate(-22,10) scale(1,1)"><g><path fill="none" stroke="none"/><text fill="#000000" font-family="Arial" font-size="13px" font-style="normal" font-weight="normal" stroke="none" text-decoration="none" x="629" y="71.5">-numero: String</text></g></g><g transform="translate(-22,10) scale(1,1)"><g><path fill="none" stroke="none"/><text fill="#000000" font-family="Arial" font-size="13px" font-style="normal" font-weight="normal" stroke="none" text-decoration="none" x="629" y="86.5">-solde: double</text></g></g><g transform="translate(-22,10) scale(1,1)"><g><path fill="none" stroke="none"/><text fill="#000000" font-family="Arial" font-size="13px" font-style="normal" font-weight="normal" stroke="none" text-decoration="none" x="629" y="109.5">«constructor»+Compte(numero: String, titulaire: Titulaire)</text></g></g><g transform="translate(-22,10) scale(1,1)"><g><path fill="none" stroke="none"/><text fill="#000000" font-family="Arial" font-size="13px" font-style="normal" font-weight="normal" stroke="none" text-decoration="none" x="629" y="124.5">«constructor»+Compte(numero: String, titulaire: Titulaire, solde: double)</text></g></g><g transform="translate(-22,10) scale(1,1)"><g><path fill="none" stroke="none"/><text fill="#000000" font-family="Arial" font-size="13px" font-style="normal" font-weight="normal" stroke="none" text-decoration="none" x="629" y="139.5">«constructor»+Compte(compte: Compte)</text></g></g><g transform="translate(-22,10) scale(1,1)"><g><path fill="none" stroke="none"/><text fill="#000000" font-family="Arial" font-size="13px" font-style="normal" font-weight="normal" stroke="none" text-decoration="none" x="629" y="154.5">+retrait(montant: double): void</text></g></g><g transform="translate(-22,10) scale(1,1)"><g><path fill="none" stroke="none"/><text fill="#000000" font-family="Arial" font-size="13px" font-style="normal" font-weight="normal" stroke="none" text-decoration="none" x="629" y="169.5">+depot(montant: double): void</text></g></g><g transform="translate(-22,10) scale(1,1)"><g><path fill="none" stroke="none"/><text fill="#000000" font-family="Arial" font-size="13px" font-style="normal" font-weight="normal" stroke="none" text-decoration="none" x="629" y="184.5">+getNumero(): String</text></g></g><g transform="translate(-22,10) scale(1,1)"><g><path fill="none" stroke="none"/><text fill="#000000" font-family="Arial" font-size="13px" font-style="normal" font-weight="normal" stroke="none" text-decoration="none" x="629" y="199.5">-setNumero(numero: String): Compte</text></g></g><g transform="translate(-22,10) scale(1,1)"><g><path fill="none" stroke="none"/><text fill="#000000" font-family="Arial" font-size="13px" font-style="normal" font-weight="normal" stroke="none" text-decoration="none" x="629" y="214.5">-checkIBAN(numero: String): boolean</text></g></g><g transform="translate(-22,10) scale(1,1)"><g><path fill="none" stroke="none"/><text fill="#000000" font-family="Arial" font-size="13px" font-style="normal" font-weight="normal" stroke="none" text-decoration="none" x="629" y="229.5">+getSolde(): double</text></g></g><g transform="translate(-22,10) scale(1,1)"><g><path fill="none" stroke="none"/><text fill="#000000" font-family="Arial" font-size="13px" font-style="normal" font-weight="normal" stroke="none" text-decoration="none" x="629" y="244.5">+getTitulaire(): Titulaire</text></g></g><g transform="translate(-22,10) scale(1,1)"><g><path fill="none" stroke="none"/><text fill="#000000" font-family="Arial" font-size="13px" font-style="normal" font-weight="normal" stroke="none" text-decoration="none" x="629" y="259.5">+setTitulaire(titulaire: Titulaire): Compte</text></g></g><g transform="translate(-22,10) scale(1,1)"><g><path fill="none" stroke="none"/><text fill="#000000" font-family="Arial" font-size="13px" font-style="normal" font-weight="normal" stroke="none" text-decoration="none" x="629" y="274.5">+add(compte: Compte): double</text></g></g><g transform="translate(-22,10) scale(1,1)"><g><path fill="none" stroke="none"/><text fill="#000000" font-family="Arial" font-size="13px" font-style="normal" font-weight="normal" stroke="none" text-decoration="none" x="629" y="289.5">+add(amount: double): double</text></g></g><g transform="translate(-22,10) scale(1,1)"><g><path fill="none" stroke="none"/><text fill="#000000" font-family="Arial" font-size="13px" font-style="normal" font-weight="normal" stroke="none" text-decoration="none" x="629" y="304.5">+equals(o: Object): boolean</text></g></g><g transform="translate(-22,10) scale(1,1)"><g><path fill="none" stroke="none"/><text fill="#000000" font-family="Arial" font-size="13px" font-style="normal" font-weight="normal" stroke="none" text-decoration="none" x="629" y="319.5">+hashCode(): int</text></g></g><g transform="translate(-22,10) scale(1,1)"><g><path fill="none" stroke="none"/><text fill="#000000" font-family="Arial" font-size="13px" font-style="normal" font-weight="normal" stroke="none" text-decoration="none" x="629" y="334.5">+toString(): String</text></g></g><g transform="translate(-22,10) scale(1,1)"><g><path fill="none" stroke="none"/><text fill="#000000" font-family="Arial" font-size="13px" font-style="italic" font-weight="normal" stroke="none" text-decoration="none" x="629" y="349.5">#calculInteret(): double</text></g></g><g transform="translate(-22,10) scale(1,1)"><g><path fill="none" stroke="none"/><text fill="#000000" font-family="Arial" font-size="13px" font-style="normal" font-weight="normal" stroke="none" text-decoration="none" x="629" y="364.5">+addInteret(): void</text></g></g><g transform="translate(-22,10) scale(1,1)"><path d="M 1175 607 L 1176 520 L 832 520 L 833 372" fill="none" stroke="#000000" stroke-miterlimit="10"/></g><g transform="translate(-22,10) scale(1,1)"><path d="M 841.2815130290558 392.3817698434062 L 833 372 L 824.443826352474 392.268001690186" fill="#FFFFFF" stroke="none"/></g><g transform="translate(-22,10) scale(1,1)"><path d="M 841.2815130290558 392.3817698434062 L 833 372 L 824.443826352474 392.268001690186 L 841.2815130290558 392.3817698434062" fill="none" stroke="#000000" stroke-miterlimit="10"/></g><g transform="translate(-22,10) scale(1,1)"><path d="M 510 623 L 512 520 L 832 520 L 833 372" fill="none" stroke="#000000" stroke-miterlimit="10"/></g><g transform="translate(-22,10) scale(1,1)"><path d="M 841.2815130290558 392.3817698434062 L 833 372 L 824.443826352474 392.268001690186" fill="#FFFFFF" stroke="none"/></g><g transform="translate(-22,10) scale(1,1)"><path d="M 841.2815130290558 392.3817698434062 L 833 372 L 824.443826352474 392.268001690186 L 841.2815130290558 392.3817698434062" fill="none" stroke="#000000" stroke-miterlimit="10"/></g><g transform="translate(-22,10) scale(1,1)"><rect fill="#C0C0C0" height="355" opacity="0.2" stroke="none" width="484.3251953125" x="1111" y="7"/></g><g transform="translate(-22,10) scale(1,1)"><rect fill="#ffffff" height="355" stroke="none" width="484.3251953125" x="1104" y="0"/></g><g transform="translate(-22,10) scale(1,1)"><path d="M 1104 0 L 1588.3251953125 0 L 1588.3251953125 355 L 1104 355 L 1104 0 Z Z" fill="none" stroke="#000000" stroke-miterlimit="10"/></g><g transform="translate(-22,10) scale(1,1)"><path d="M 1104 40 L 1588.3251953125 40" fill="none" stroke="#000000" stroke-miterlimit="10"/></g><g transform="translate(-22,10) scale(1,1)"><path d="M 1104 93 L 1588.3251953125 93" fill="none" stroke="#000000" stroke-miterlimit="10"/></g><g transform="translate(-22,10) scale(1,1)"><g><path fill="none" stroke="none"/><text fill="#000000" font-family="Arial" font-size="13px" font-style="normal" font-weight="bold" stroke="none" text-decoration="none" x="1320.997314453125" y="17.5">Titulaire</text></g></g><g transform="translate(-22,10) scale(1,1)"><g><path fill="none" stroke="none"/><text fill="#000000" font-family="Arial" font-size="13px" font-style="normal" font-weight="normal" stroke="none" text-decoration="none" x="1306.073974609375" y="32.5">(from models)</text></g></g><g transform="translate(-22,10) scale(1,1)"><g><path fill="none" stroke="none"/><text fill="#000000" font-family="Arial" font-size="13px" font-style="normal" font-weight="normal" stroke="none" text-decoration="none" x="1109" y="55.5">-nom: String</text></g></g><g transform="translate(-22,10) scale(1,1)"><g><path fill="none" stroke="none"/><text fill="#000000" font-family="Arial" font-size="13px" font-style="normal" font-weight="normal" stroke="none" text-decoration="none" x="1109" y="70.5">-prenom: String</text></g></g><g transform="translate(-22,10) scale(1,1)"><g><path fill="none" stroke="none"/><text fill="#000000" font-family="Arial" font-size="13px" font-style="normal" font-weight="normal" stroke="none" text-decoration="none" x="1109" y="85.5">-dateDeNaissance: LocalDate</text></g></g><g transform="translate(-22,10) scale(1,1)"><g><path fill="none" stroke="none"/><text fill="#000000" font-family="Arial" font-size="13px" font-style="normal" font-weight="normal" stroke="none" text-decoration="none" x="1109" y="108.5">«constructor»+Titulaire(titulaire: Titulaire)</text></g></g><g transform="translate(-22,10) scale(1,1)"><g><path fill="none" stroke="none"/><text fill="#000000" font-family="Arial" font-size="13px" font-style="normal" font-weight="normal" stroke="none" text-decoration="none" x="1109" y="123.5">«constructor»+Titulaire(nom: String, prenom: String, dateDeNaissance: LocalDate)</text></g></g><g transform="translate(-22,10) scale(1,1)"><g><path fill="none" stroke="none"/><text fill="#000000" font-family="Arial" font-size="13px" font-style="normal" font-weight="normal" stroke="none" text-decoration="none" x="1109" y="138.5">«constructor»+Titulaire(nom: String, prenom: String, year: int, month: int, day: int)</text></g></g><g transform="translate(-22,10) scale(1,1)"><g><path fill="none" stroke="none"/><text fill="#000000" font-family="Arial" font-size="13px" font-style="normal" font-weight="normal" stroke="none" text-decoration="none" x="1109" y="153.5">«constructor»+Titulaire(nom: String, prenom: String)</text></g></g><g transform="translate(-22,10) scale(1,1)"><g><path fill="none" stroke="none"/><text fill="#000000" font-family="Arial" font-size="13px" font-style="normal" font-weight="normal" stroke="none" text-decoration="none" x="1109" y="168.5">+getNom(): String</text></g></g><g transform="translate(-22,10) scale(1,1)"><g><path fill="none" stroke="none"/><text fill="#000000" font-family="Arial" font-size="13px" font-style="normal" font-weight="normal" stroke="none" text-decoration="none" x="1109" y="183.5">+getPrenom(): String</text></g></g><g transform="translate(-22,10) scale(1,1)"><g><path fill="none" stroke="none"/><text fill="#000000" font-family="Arial" font-size="13px" font-style="normal" font-weight="normal" stroke="none" text-decoration="none" x="1109" y="198.5">+getDateDeNaissance(): LocalDate</text></g></g><g transform="translate(-22,10) scale(1,1)"><g><path fill="none" stroke="none"/><text fill="#000000" font-family="Arial" font-size="13px" font-style="normal" font-weight="normal" stroke="none" text-decoration="none" x="1109" y="213.5">+getAge(): int</text></g></g><g transform="translate(-22,10) scale(1,1)"><g><path fill="none" stroke="none"/><text fill="#000000" font-family="Arial" font-size="13px" font-style="normal" font-weight="normal" stroke="none" text-decoration="none" x="1109" y="228.5">+ajoutCompte(compteCourant: CompteCourant): void</text></g></g><g transform="translate(-22,10) scale(1,1)"><g><path fill="none" stroke="none"/><text fill="#000000" font-family="Arial" font-size="13px" font-style="normal" font-weight="normal" stroke="none" text-decoration="none" x="1109" y="243.5">-setNom(nom: String): Titulaire</text></g></g><g transform="translate(-22,10) scale(1,1)"><g><path fill="none" stroke="none"/><text fill="#000000" font-family="Arial" font-size="13px" font-style="normal" font-weight="normal" stroke="none" text-decoration="none" x="1109" y="258.5">-setPrenom(prenom: String): Titulaire</text></g></g><g transform="translate(-22,10) scale(1,1)"><g><path fill="none" stroke="none"/><text fill="#000000" font-family="Arial" font-size="13px" font-style="normal" font-weight="normal" stroke="none" text-decoration="none" x="1109" y="273.5">+setDateDeNaissance(dateDeNaissance: LocalDate): Titulaire</text></g></g><g transform="translate(-22,10) scale(1,1)"><g><path fill="none" stroke="none"/><text fill="#000000" font-family="Arial" font-size="13px" font-style="normal" font-weight="normal" stroke="none" text-decoration="none" x="1109" y="288.5">+setDateDeNaissance(year: int, month: int, day: int): Titulaire</text></g></g><g transform="translate(-22,10) scale(1,1)"><g><path fill="none" stroke="none"/><text fill="#000000" font-family="Arial" font-size="13px" font-style="normal" font-weight="normal" stroke="none" text-decoration="none" x="1109" y="303.5">+toString(): String</text></g></g><g transform="translate(-22,10) scale(1,1)"><g><path fill="none" stroke="none"/><text fill="#000000" font-family="Arial" font-size="13px" font-style="normal" font-weight="normal" stroke="none" text-decoration="none" x="1109" y="318.5">+equals(obj: Object): boolean</text></g></g><g transform="translate(-22,10) scale(1,1)"><g><path fill="none" stroke="none"/><text fill="#000000" font-family="Arial" font-size="13px" font-style="normal" font-weight="normal" stroke="none" text-decoration="none" x="1109" y="333.5">+hashCode(): int</text></g></g><g transform="translate(-22,10) scale(1,1)"><g><path fill="none" stroke="none"/><text fill="#000000" font-family="Arial" font-size="13px" font-style="normal" font-weight="normal" stroke="none" text-decoration="none" x="1109" y="348.5">-equals(t: Titulaire): boolean</text></g></g><g transform="translate(-22,10) scale(1,1)"><path d="M 1046 186 L 1103 185" fill="none" stroke="#000000" stroke-miterlimit="10"/></g><g transform="translate(-22,10) scale(1,1)"><path d="M 1092.912728577209 189.38713519770502 L 1103 185 L 1092.7650489249957 180.96939502155456" fill="none" stroke="#000000" stroke-miterlimit="10"/></g><g transform="translate(-22,10) scale(1,1)"><g><path fill="none" stroke="none"/><text fill="#000000" font-family="Arial" font-size="13px" font-style="normal" font-weight="normal" stroke="none" text-decoration="none" x="1052.5" y="174.5">-titulaire</text></g></g><g transform="translate(-22,10) scale(1,1)"><rect fill="#C0C0C0" height="87" opacity="0.2" stroke="none" width="294.05419921875" x="39" y="391"/></g><g transform="translate(-22,10) scale(1,1)"><rect fill="#ffffff" height="87" stroke="none" width="294.05419921875" x="32" y="384"/></g><g transform="translate(-22,10) scale(1,1)"><path d="M 32 384 L 326.05419921875 384 L 326.05419921875 471 L 32 471 L 32 384 Z Z" fill="none" stroke="#000000" stroke-miterlimit="10"/></g><g transform="translate(-22,10) scale(1,1)"><path d="M 32 424 L 326.05419921875 424" fill="none" stroke="#000000" stroke-miterlimit="10"/></g><g transform="translate(-22,10) scale(1,1)"><path d="M 32 434 L 326.05419921875 434" fill="none" stroke="#000000" stroke-miterlimit="10"/></g><g transform="translate(-22,10) scale(1,1)"><g><path fill="none" stroke="none"/><text fill="#000000" font-family="Arial" font-size="13px" font-style="normal" font-weight="bold" stroke="none" text-decoration="none" x="120.882568359375" y="401.5">CompteRepository</text></g></g><g transform="translate(-22,10) scale(1,1)"><g><path fill="none" stroke="none"/><text fill="#000000" font-family="Arial" font-size="13px" font-style="normal" font-weight="normal" stroke="none" text-decoration="none" x="131.35302734375" y="416.5">(from repository)</text></g></g><g transform="translate(-22,10) scale(1,1)"><g><path fill="none" stroke="none"/><text fill="#000000" font-family="Arial" font-size="13px" font-style="normal" font-weight="normal" stroke="none" text-decoration="none" x="37" y="449.5">«constructor»+CompteRepository(dbPath: String)</text></g></g><g transform="translate(-22,10) scale(1,1)"><g><path fill="none" stroke="none"/><text fill="#000000" font-family="Arial" font-size="13px" font-style="normal" font-weight="normal" stroke="none" text-decoration="none" x="37" y="464.5">+fromResultSet(resultSet: ResultSet): Compte</text></g></g><g transform="translate(-22,10) scale(1,1)"><rect fill="#C0C0C0" height="190" opacity="0.2" stroke="none" width="385.5986328125" x="95" y="41"/></g><g transform="translate(-22,10) scale(1,1)"><rect fill="#C0C0C0" height="22" opacity="0.2" stroke="none" width="16.94091796875" x="472.65771484375" y="23"/></g><g transform="translate(-22,10) scale(1,1)"><rect fill="#ffffff" height="190" stroke="none" width="385.5986328125" x="88" y="34"/></g><g transform="translate(-22,10) scale(1,1)"><path d="M 88 34 L 473.5986328125 34 L 473.5986328125 224 L 88 224 L 88 34 Z Z" fill="none" stroke="#000000" stroke-miterlimit="10"/></g><g transform="translate(-22,10) scale(1,1)"><path d="M 88 74 L 473.5986328125 74" fill="none" stroke="#000000" stroke-miterlimit="10"/></g><g transform="translate(-22,10) scale(1,1)"><path d="M 88 112 L 473.5986328125 112" fill="none" stroke="#000000" stroke-miterlimit="10"/></g><g transform="translate(-22,10) scale(1,1)"><g><path fill="none" stroke="none"/><text fill="#000000" font-family="Arial" font-size="13px" font-style="italic" font-weight="bold" stroke="none" text-decoration="none" x="246.848876953125" y="51.5">Repository</text></g></g><g transform="translate(-22,10) scale(1,1)"><g><path fill="none" stroke="none"/><text fill="#000000" font-family="Arial" font-size="13px" font-style="normal" font-weight="normal" stroke="none" text-decoration="none" x="233.125244140625" y="66.5">(from repository)</text></g></g><g transform="translate(-22,10) scale(1,1)"><g><path fill="none" stroke="none"/><text fill="#000000" font-family="Arial" font-size="13px" font-style="normal" font-weight="normal" stroke="none" text-decoration="none" x="93" y="89.5">-DB_PATH: String {readOnly}</text></g></g><g transform="translate(-22,10) scale(1,1)"><g><path fill="none" stroke="none"/><text fill="#000000" font-family="Arial" font-size="13px" font-style="normal" font-weight="normal" stroke="none" text-decoration="none" x="93" y="104.5">-TABLE_NAME: String {readOnly}</text></g></g><g transform="translate(-22,10) scale(1,1)"><g><path fill="none" stroke="none"/><text fill="#000000" font-family="Arial" font-size="13px" font-style="normal" font-weight="normal" stroke="none" text-decoration="none" x="93" y="127.5">«constructor»+Repository(db_path: String, tableName: String)</text></g></g><g transform="translate(-22,10) scale(1,1)"><g><path fill="none" stroke="none"/><text fill="#000000" font-family="Arial" font-size="13px" font-style="normal" font-weight="normal" stroke="none" text-decoration="none" x="93" y="142.5">+getDB_PATH(): String</text></g></g><g transform="translate(-22,10) scale(1,1)"><g><path fill="none" stroke="none"/><text fill="#000000" font-family="Arial" font-size="13px" font-style="normal" font-weight="normal" stroke="none" text-decoration="none" x="93" y="157.5">#connect(): Connection</text></g></g><g transform="translate(-22,10) scale(1,1)"><g><path fill="none" stroke="none"/><text fill="#000000" font-family="Arial" font-size="13px" font-style="normal" font-weight="normal" stroke="none" text-decoration="none" x="93" y="172.5">#toHashMap(rs: ResultSet): HashMap</text></g></g><g transform="translate(-22,10) scale(1,1)"><g><path fill="none" stroke="none"/><text fill="#000000" font-family="Arial" font-size="13px" font-style="italic" font-weight="normal" stroke="none" text-decoration="none" x="93" y="187.5">+fromResultSet(resultSet: ResultSet): T</text></g></g><g transform="translate(-22,10) scale(1,1)"><g><path fill="none" stroke="none"/><text fill="#000000" font-family="Arial" font-size="13px" font-style="normal" font-weight="normal" stroke="none" text-decoration="none" x="93" y="202.5">+findAll(): T[*]</text></g></g><g transform="translate(-22,10) scale(1,1)"><g><path fill="none" stroke="none"/><text fill="#000000" font-family="Arial" font-size="13px" font-style="normal" font-weight="normal" stroke="none" text-decoration="none" x="93" y="217.5">+findById(id: int): T</text></g></g><g transform="translate(-22,10) scale(1,1)"><rect fill="#ffffff" height="22" stroke="none" width="16.94091796875" x="465.65771484375" y="16"/></g><g transform="translate(-22,10) scale(1,1)"><path d="M 465.65771484375 16 L 482.5986328125 16 L 482.5986328125 38 L 465.65771484375 38 L 465.65771484375 16 Z Z" fill="none" stroke="#000000" stroke-dasharray="3" stroke-miterlimit="10"/></g><g transform="translate(-22,10) scale(1,1)"><g><path fill="none" stroke="none"/><text fill="#000000" font-family="Arial" font-size="13px" font-style="normal" font-weight="normal" stroke="none" text-decoration="none" x="470.65771484375" y="31.5">T</text></g></g><g transform="translate(-22,10) scale(1,1)"><path d="M 181 383 L 184 312 L 280 312 L 282 225" fill="none" stroke="#000000" stroke-miterlimit="10"/></g><g transform="translate(-22,10) scale(1,1)"><path d="M 289.94968577996997 245.51347108608738 L 282 225 L 273.1160622126725 245.1264912339656" fill="#FFFFFF" stroke="none"/></g><g transform="translate(-22,10) scale(1,1)"><path d="M 289.94968577996997 245.51347108608738 L 282 225 L 273.1160622126725 245.1264912339656 L 289.94968577996997 245.51347108608738" fill="none" stroke="#000000" stroke-miterlimit="10"/></g><g transform="translate(-22,10) scale(1,1)"><rect fill="#C0C0C0" height="87" opacity="0.2" stroke="none" width="294.2890625" x="375" y="391"/></g><g transform="translate(-22,10) scale(1,1)"><rect fill="#ffffff" height="87" stroke="none" width="294.2890625" x="368" y="384"/></g><g transform="translate(-22,10) scale(1,1)"><path d="M 368 384 L 662.2890625 384 L 662.2890625 471 L 368 471 L 368 384 Z Z" fill="none" stroke="#000000" stroke-miterlimit="10"/></g><g transform="translate(-22,10) scale(1,1)"><path d="M 368 424 L 662.2890625 424" fill="none" stroke="#000000" stroke-miterlimit="10"/></g><g transform="translate(-22,10) scale(1,1)"><path d="M 368 434 L 662.2890625 434" fill="none" stroke="#000000" stroke-miterlimit="10"/></g><g transform="translate(-22,10) scale(1,1)"><g><path fill="none" stroke="none"/><text fill="#000000" font-family="Arial" font-size="13px" font-style="normal" font-weight="bold" stroke="none" text-decoration="none" x="456.02880859375" y="401.5">TitulaireRepository</text></g></g><g transform="translate(-22,10) scale(1,1)"><g><path fill="none" stroke="none"/><text fill="#000000" font-family="Arial" font-size="13px" font-style="normal" font-weight="normal" stroke="none" text-decoration="none" x="467.470458984375" y="416.5">(from repository)</text></g></g><g transform="translate(-22,10) scale(1,1)"><g><path fill="none" stroke="none"/><text fill="#000000" font-family="Arial" font-size="13px" font-style="normal" font-weight="normal" stroke="none" text-decoration="none" x="373" y="449.5">«constructor»+TitulaireRepository(dbPath: String)</text></g></g><g transform="translate(-22,10) scale(1,1)"><g><path fill="none" stroke="none"/><text fill="#000000" font-family="Arial" font-size="13px" font-style="normal" font-weight="normal" stroke="none" text-decoration="none" x="373" y="464.5">+fromResultSet(resultSet: ResultSet): Titulaire</text></g></g><g transform="translate(-22,10) scale(1,1)"><path d="M 514 383 L 512 312 L 280 312 L 282 225" fill="none" stroke="#000000" stroke-miterlimit="10"/></g><g transform="translate(-22,10) scale(1,1)"><path d="M 289.94968577996997 245.51347108608738 L 282 225 L 273.1160622126725 245.1264912339656" fill="#FFFFFF" stroke="none"/></g><g transform="translate(-22,10) scale(1,1)"><path d="M 289.94968577996997 245.51347108608738 L 282 225 L 273.1160622126725 245.1264912339656 L 289.94968577996997 245.51347108608738" fill="none" stroke="#000000" stroke-miterlimit="10"/></g></g></svg>